<svg xmlns="http://www.w3.org/2000/svg" width="219" height="82.72" viewBox="0 0 219 82.72">
  <g id="Layer_2_1_" transform="translate(-4.7 -6.7)">
    <g id="Group_16" data-name="Group 16" transform="translate(4.7 6.7)">
      <ellipse id="Ellipse_1" data-name="Ellipse 1" cx="56.535" cy="41.36" rx="56.535" ry="41.36" fill="#fff"/>
      <g id="Group_15" data-name="Group 15" transform="translate(3.739 3.729)">
        <g id="Group_327_10_">
          <g id="Group_322_10_" transform="translate(0 4.66)" opacity="0.18">
            <g id="Group_321_10_" transform="translate(0 0)">
              <g id="Group_319_10_">
                <path id="Path_259_10_" d="M10.549,55.881,39.412,41.3s-6.546-17.853,12.2-24.995C80.772,5.3,101.9,25.828,101.9,25.828S84.343,3.809,54.885,5.892,12.037,23.746,8.466,32.077c-2.678,6.546-3.571,12.2-.893,18.151A33.921,33.921,0,0,0,10.549,55.881Z" transform="translate(-5.957 -5.753)"/>
              </g>
              <g id="Group_320_10_" transform="translate(5.295 20.328)">
                <path id="Path_260_10_" d="M94.947-4.4,66.084,9.883s6.546,18.151-12.5,24.995C24.426,45.887,3.3,25.355,3.3,25.355S20.856,47.374,50.016,45.589,93.459,27.736,96.732,19.7c2.678-6.249,3.571-12.2,1.19-18.151A18.615,18.615,0,0,0,94.947-4.4Z" transform="translate(-3.3 4.4)"/>
              </g>
            </g>
          </g>
          <path id="Path_261_10_" d="M11.449,58.081,40.312,43.5s-6.546-17.853,12.2-24.995C81.672,7.5,102.8,28.028,102.8,28.028S85.54,6.009,56.082,8.092C26.922,10.175,12.937,26.243,9.366,34.277c-2.678,6.546-3.571,12.2-.893,18.448A31,31,0,0,0,11.449,58.081Z" transform="translate(-4.179 -7.953)" fill="#233d7c"/>
          <path id="Path_262_10_" d="M100.347,14.8,71.484,29.083s6.546,18.151-12.5,24.995C29.529,65.087,8.7,44.258,8.7,44.258S26.256,66.277,55.416,64.492,98.859,46.638,102.132,38.6c2.678-6.249,3.571-12.2,1.19-18.151A33.92,33.92,0,0,0,100.347,14.8Z" transform="translate(-0.537 5.573)" fill="#d02227"/>
          <g id="Group_324_10_" transform="translate(41.849 30.817)">
            <g id="Group_323_10_" transform="translate(0 0)">
              <path id="Path_263_10_" d="M-14.7,1.229h2.083V-2.044L-10.832.634c.3.6.893.6,1.488.6,0,0,.6,0,.6-1.19V-7.1h-2.083v4.166L-12.617-6.8c-.3-.6-.893-.6-1.488-.6-.6.3-.6,1.19-.6,1.19Z" transform="translate(14.7 7.4)" fill="#30353c"/>
              <path id="Path_264_10_" d="M-9.555-2.044l1.19,1.19,2.083-2.083A4.3,4.3,0,0,0-9.257-5.02,3.189,3.189,0,0,0-12.53-2.342c-.6,1.785,1.488,3.571,2.38,3.571H-3.6s2.38-.3,2.083-2.38C-1.818-2.639-4.2-3.829-4.2-4.424s0-.893.893-.893H-.33V1.229H1.752V-5.317h2.38V-7.4H-4.5s-2.38.3-2.083,2.38S-4.5-2.044-4.2-1.449s0,.893-.6.893H-9.852a1.165,1.165,0,0,1-1.19-1.488c.3-1.488,1.488-1.488,1.785-1.19C-8.364-2.937-9.555-2.044-9.555-2.044Z" transform="translate(18.779 7.4)" fill="#30353c"/>
            </g>
          </g>
        </g>
      </g>
    </g>
    <g id="Group_18" data-name="Group 18" transform="translate(134.136 12.354)">
      <g id="Group_17" data-name="Group 17">
        <path id="Path_12" data-name="Path 12" d="M63.97,8.6V26.156L55.044,10.683c0-.3-.3-.3-.3-.6L53.854,9.2c-.3,0-.3-.3-.6-.3-.3-.3-.6-.3-1.19-.3h-.6A3.789,3.789,0,0,0,48.2,11.873V37.165h5.654V19.61L62.78,35.082a.291.291,0,0,0,.3.3l.893.893c.3,0,.3.3.6.3h0a2.683,2.683,0,0,0,1.488.3A3.438,3.438,0,0,0,69.624,33.3V8.6Z" transform="translate(-48.2 -8.6)" fill="#233d7c"/>
        <path id="Path_13" data-name="Path 13" d="M83.231,23.775a7.712,7.712,0,0,1-5.058,13.092H62.7l6.546-5.654h6.546a2.221,2.221,0,0,0,1.785-3.571L71.032,21.1h0c-3.868-4.761-.3-12.5,5.951-12.5H90.075l-6.546,5.654H78.768c-1.785,0-2.976,2.678-1.488,3.868Z" transform="translate(-19.555 -8.6)" fill="#233d7c"/>
        <path id="Path_14" data-name="Path 14" d="M67.214,26.275H77.629l-6.546,5.654H67.512a11.94,11.94,0,0,1-4.463-.893,11.122,11.122,0,0,1-4.463-3.868c-.3-.3-.3-.6-.6-.893a12.475,12.475,0,0,1-1.19-4.761,10.39,10.39,0,0,1,2.976-7.141A9.671,9.671,0,0,1,67.214,11.1a9.426,9.426,0,0,1,6.844,2.678,8.039,8.039,0,0,1,2.976,5.058L71.38,23.6l-.3.3-.893.893-3.868-4.166,3.571-2.976h0a3.206,3.206,0,0,0-2.38-.6,4.739,4.739,0,0,0-4.463,3.571C62.454,23,64.239,26.275,67.214,26.275Z" transform="translate(-31.21 -3.661)" fill="#233d7c"/>
        <path id="Path_15" data-name="Path 15" d="M93.117,8.6v5.654H84.785V36.868H79.132V14.254H70.8L77.346,8.6Z" transform="translate(-3.553 -8.6)" fill="#233d7c"/>
      </g>
    </g>
    <g id="Group_19" data-name="Group 19" transform="translate(134.136 51.036)">
      <path id="Path_16" data-name="Path 16" d="M55.044,21.9c4.463,0,6.546,2.678,6.546,7.141v14.58c0,4.463-2.083,7.141-6.546,7.141H48.2V21.6h6.844Zm0,26.185c2.38,0,3.571-1.488,3.571-4.166V29.039c0-2.678-1.19-4.166-3.571-4.166H51.473V48.082Z" transform="translate(-48.2 -21.6)" fill="#414042"/>
      <path id="Path_17" data-name="Path 17" d="M56.973,21.7V50.86H53.7V21.7Z" transform="translate(-37.335 -21.402)" fill="#414042"/>
      <path id="Path_18" data-name="Path 18" d="M68.992,29.039v2.38H66.017V28.741c0-2.678-.893-4.166-3.273-4.166s-3.273,1.488-3.273,4.166V44.214c0,2.678,1.19,4.166,3.273,4.166,2.38,0,3.273-1.488,3.273-4.166V38.263H63.041V35.287h5.951v8.629c0,4.463-2.083,7.439-6.546,7.439S55.9,48.38,55.9,43.917V29.039c0-4.463,2.083-7.439,6.546-7.439S68.992,24.576,68.992,29.039Z" transform="translate(-32.988 -21.6)" fill="#414042"/>
      <path id="Path_19" data-name="Path 19" d="M64.573,21.7V50.86H61.3V21.7Z" transform="translate(-22.32 -21.402)" fill="#414042"/>
      <path id="Path_20" data-name="Path 20" d="M68.456,50.86V24.676H63.1V21.7H77.085v2.976H71.729V50.86Z" transform="translate(-18.764 -21.402)" fill="#414042"/>
      <path id="Path_21" data-name="Path 21" d="M71.866,44.909l-1.19,5.951H67.7L73.354,21.7h4.761l5.654,29.16H80.495L79.3,44.909Zm.6-2.678h6.546L75.734,25.568Z" transform="translate(-9.677 -21.402)" fill="#414042"/>
      <path id="Path_22" data-name="Path 22" d="M74.4,50.86V21.7h3.273V47.885H86V50.86Z" transform="translate(3.559 -21.402)" fill="#414042"/>
    </g>
  </g>
</svg>
